<svg width="97" height="23" viewBox="0 0 97 23" fill="none" xmlns="http://www.w3.org/2000/svg">
<path d="M2.8 1.35V18.75H10.6V21H0.25V1.35H2.8ZM19.2377 0.989998C21.4777 0.989998 23.1277 1.55 24.1877 2.67C25.2477 3.79 25.7777 5.38 25.7777 7.44V14.91C25.7777 16.97 25.2477 18.56 24.1877 19.68C23.1277 20.8 21.4777 21.36 19.2377 21.36C16.9977 21.36 15.3477 20.8 14.2877 19.68C13.2277 18.56 12.6977 16.97 12.6977 14.91V7.44C12.6977 5.38 13.2277 3.79 14.2877 2.67C15.3477 1.55 16.9977 0.989998 19.2377 0.989998ZM19.2377 3.24C17.9177 3.24 16.9177 3.57 16.2377 4.23C15.5777 4.89 15.2477 5.86 15.2477 7.14V15.18C15.2477 16.46 15.5777 17.44 16.2377 18.12C16.9177 18.78 17.9177 19.11 19.2377 19.11C20.5577 19.11 21.5477 18.78 22.2077 18.12C22.8877 17.44 23.2277 16.46 23.2277 15.18V7.17C23.2277 5.89 22.8877 4.92 22.2077 4.26C21.5477 3.58 20.5577 3.24 19.2377 3.24ZM42.8334 1.35L36.9234 21H33.5634L27.8334 1.35H30.5334L35.2434 18.54L40.1334 1.35H42.8334ZM58.0844 1.35V3.66H52.3844V21H49.8344V3.66H44.1344V1.35H58.0844Z" fill="#777777"/>
<path d="M65.78 3.45L63.88 7.75V10H63.03V7.75L61.13 3.45H62.1L63.46 6.85L64.83 3.45H65.78ZM67.6373 5C68.2307 5 68.6707 5.16 68.9573 5.48C69.2507 5.79333 69.3973 6.24 69.3973 6.82V8.3C69.3973 8.88 69.2507 9.33 68.9573 9.65C68.6707 9.96333 68.2307 10.12 67.6373 10.12C67.044 10.12 66.6007 9.96333 66.3073 9.65C66.0207 9.33 65.8773 8.88 65.8773 8.3V6.82C65.8773 6.24 66.0207 5.79333 66.3073 5.48C66.6007 5.16 67.044 5 67.6373 5ZM67.6373 5.71C67.3507 5.71 67.1273 5.8 66.9673 5.98C66.8073 6.16 66.7273 6.41667 66.7273 6.75V8.37C66.7273 8.70333 66.8073 8.96 66.9673 9.14C67.1273 9.32 67.3507 9.41 67.6373 9.41C67.924 9.41 68.1473 9.32 68.3073 9.14C68.4673 8.96 68.5473 8.70333 68.5473 8.37V6.74C68.5473 6.40667 68.4673 6.15333 68.3073 5.98C68.1473 5.8 67.924 5.71 67.6373 5.71ZM74.0941 10H73.2941V9.3C73.1141 9.56667 72.9141 9.77 72.6941 9.91C72.4741 10.05 72.2408 10.12 71.9941 10.12C71.5875 10.12 71.2675 9.98 71.0341 9.7C70.8075 9.41333 70.6941 8.99667 70.6941 8.45V5.12H71.5441V8.3C71.5441 8.65333 71.5975 8.91333 71.7041 9.08C71.8175 9.24667 71.9708 9.33 72.1641 9.33C72.3441 9.33 72.5308 9.26 72.7241 9.12C72.9241 8.97333 73.0975 8.77333 73.2441 8.52V5.12H74.0941V10ZM78.1957 3.45V9.25H80.7957V10H77.3457V3.45H78.1957ZM83.3112 5C83.9045 5 84.3445 5.16 84.6312 5.48C84.9245 5.79333 85.0712 6.24 85.0712 6.82V8.3C85.0712 8.88 84.9245 9.33 84.6312 9.65C84.3445 9.96333 83.9045 10.12 83.3112 10.12C82.7178 10.12 82.2745 9.96333 81.9812 9.65C81.6945 9.33 81.5512 8.88 81.5512 8.3V6.82C81.5512 6.24 81.6945 5.79333 81.9812 5.48C82.2745 5.16 82.7178 5 83.3112 5ZM83.3112 5.71C83.0245 5.71 82.8012 5.8 82.6412 5.98C82.4812 6.16 82.4012 6.41667 82.4012 6.75V8.37C82.4012 8.70333 82.4812 8.96 82.6412 9.14C82.8012 9.32 83.0245 9.41 83.3112 9.41C83.5978 9.41 83.8212 9.32 83.9812 9.14C84.1412 8.96 84.2212 8.70333 84.2212 8.37V6.74C84.2212 6.40667 84.1412 6.15333 83.9812 5.98C83.8212 5.8 83.5978 5.71 83.3112 5.71ZM89.8587 5.12L88.3487 10H87.2387L85.7387 5.12H86.6387L87.7987 9.38L88.9587 5.12H89.8587ZM92.2258 5C92.7858 5 93.2124 5.15333 93.5058 5.46C93.7991 5.76667 93.9458 6.21 93.9458 6.79V7.82H91.3758V8.41C91.3758 8.75 91.4558 8.99667 91.6158 9.15C91.7824 9.29667 92.0424 9.37 92.3958 9.37C92.7424 9.37 93.1758 9.31667 93.6958 9.21L93.7158 9.95C93.0958 10.0633 92.6524 10.12 92.3858 10.12C91.7258 10.12 91.2491 9.97667 90.9558 9.69C90.6691 9.40333 90.5258 8.96 90.5258 8.36V6.79C90.5258 6.21 90.6658 5.76667 90.9458 5.46C91.2324 5.15333 91.6591 5 92.2258 5ZM92.2258 5.71C91.9658 5.71 91.7591 5.79333 91.6058 5.96C91.4524 6.12 91.3758 6.35333 91.3758 6.66V7.14H93.0958V6.69C93.0958 6.37 93.0158 6.12667 92.8558 5.96C92.7024 5.79333 92.4924 5.71 92.2258 5.71ZM95.4984 8.9C95.6784 8.9 95.8151 8.94 95.9084 9.02C96.0018 9.09333 96.0484 9.20333 96.0484 9.35V9.67C96.0484 9.86333 96.0251 10.0333 95.9784 10.18L95.5484 11.61H94.9484L95.3084 10.08C95.0751 10.0267 94.9584 9.88333 94.9584 9.65V9.35C94.9584 9.20333 95.0051 9.09333 95.0984 9.02C95.1918 8.94 95.3251 8.9 95.4984 8.9ZM65.26 16.12L63.02 22.85H62.17L62.81 21H62.49L61.1 16.12H62.03L63.08 20.39L64.38 16.12H65.26ZM67.6862 16C68.2795 16 68.7195 16.16 69.0062 16.48C69.2995 16.7933 69.4462 17.24 69.4462 17.82V19.3C69.4462 19.88 69.2995 20.33 69.0062 20.65C68.7195 20.9633 68.2795 21.12 67.6862 21.12C67.0928 21.12 66.6495 20.9633 66.3562 20.65C66.0695 20.33 65.9262 19.88 65.9262 19.3V17.82C65.9262 17.24 66.0695 16.7933 66.3562 16.48C66.6495 16.16 67.0928 16 67.6862 16ZM67.6862 16.71C67.3995 16.71 67.1762 16.8 67.0162 16.98C66.8562 17.16 66.7762 17.4167 66.7762 17.75V19.37C66.7762 19.7033 66.8562 19.96 67.0162 20.14C67.1762 20.32 67.3995 20.41 67.6862 20.41C67.9728 20.41 68.1962 20.32 68.3562 20.14C68.5162 19.96 68.5962 19.7033 68.5962 19.37V17.74C68.5962 17.4067 68.5162 17.1533 68.3562 16.98C68.1962 16.8 67.9728 16.71 67.6862 16.71ZM74.143 21H73.343V20.3C73.163 20.5667 72.963 20.77 72.743 20.91C72.523 21.05 72.2896 21.12 72.043 21.12C71.6363 21.12 71.3163 20.98 71.083 20.7C70.8563 20.4133 70.743 19.9967 70.743 19.45V16.12H71.593V19.3C71.593 19.6533 71.6463 19.9133 71.753 20.08C71.8663 20.2467 72.0196 20.33 72.213 20.33C72.393 20.33 72.5796 20.26 72.773 20.12C72.973 19.9733 73.1463 19.7733 73.293 19.52V16.12H74.143V21ZM77.6777 16C77.771 16 77.8443 16.0067 77.8977 16.02V16.98C77.7977 16.96 77.6677 16.95 77.5077 16.95C77.041 16.95 76.671 17.1833 76.3977 17.65V21H75.5477V16.12H76.3477V16.85C76.5277 16.5767 76.7277 16.3667 76.9477 16.22C77.1743 16.0733 77.4177 16 77.6777 16ZM81.4465 14.17V21H80.5965V14.17H81.4465ZM84.5026 16C85.0959 16 85.5359 16.16 85.8226 16.48C86.1159 16.7933 86.2626 17.24 86.2626 17.82V19.3C86.2626 19.88 86.1159 20.33 85.8226 20.65C85.5359 20.9633 85.0959 21.12 84.5026 21.12C83.9092 21.12 83.4659 20.9633 83.1726 20.65C82.8859 20.33 82.7426 19.88 82.7426 19.3V17.82C82.7426 17.24 82.8859 16.7933 83.1726 16.48C83.4659 16.16 83.9092 16 84.5026 16ZM84.5026 16.71C84.2159 16.71 83.9926 16.8 83.8326 16.98C83.6726 17.16 83.5926 17.4167 83.5926 17.75V19.37C83.5926 19.7033 83.6726 19.96 83.8326 20.14C83.9926 20.32 84.2159 20.41 84.5026 20.41C84.7892 20.41 85.0126 20.32 85.1726 20.14C85.3326 19.96 85.4126 19.7033 85.4126 19.37V17.74C85.4126 17.4067 85.3326 17.1533 85.1726 16.98C85.0126 16.8 84.7892 16.71 84.5026 16.71ZM89.3594 14.05C89.5794 14.05 89.7894 14.0733 89.9894 14.12V14.8C89.7894 14.7667 89.5827 14.75 89.3694 14.75C89.1627 14.75 88.9994 14.8167 88.8794 14.95C88.766 15.0833 88.7094 15.2867 88.7094 15.56V16.12H89.7094V16.82H88.7094V21H87.8594V16.82H87.1594V16.12H87.8594V15.61C87.866 15.09 87.996 14.7 88.2494 14.44C88.5027 14.18 88.8727 14.05 89.3594 14.05ZM91.6844 16.12H92.9844V16.82H91.6844V19.68C91.6844 19.9333 91.7344 20.1167 91.8344 20.23C91.941 20.3367 92.1044 20.39 92.3244 20.39C92.6044 20.39 92.8777 20.3567 93.1444 20.29L93.1644 21C92.871 21.08 92.6044 21.12 92.3644 21.12C91.831 21.12 91.441 21.0033 91.1944 20.77C90.9544 20.53 90.8344 20.1433 90.8344 19.61V16.82H90.1344V16.12H90.8344L90.9944 14.82H91.6844V16.12ZM94.8933 14.05L94.8233 19H94.0133L93.9433 14.05H94.8933ZM94.4133 19.92C94.5933 19.92 94.7299 19.96 94.8233 20.04C94.9233 20.12 94.9733 20.2333 94.9733 20.38V20.67C94.9733 20.8167 94.9233 20.9267 94.8233 21C94.7299 21.08 94.5933 21.12 94.4133 21.12C94.2399 21.12 94.1033 21.08 94.0033 21C93.9099 20.9267 93.8633 20.8167 93.8633 20.67V20.38C93.8633 20.2333 93.9099 20.12 94.0033 20.04C94.1033 19.96 94.2399 19.92 94.4133 19.92Z" fill="#AAAAAA"/>
</svg>
